#N canvas 127 242 1328 794 10;
#X obj -32 -6 unpackOSC;
#X floatatom -156 96 5 0 0 0 - - -;
#X obj -156 53 routeOSC /test/1;
#X obj -42 57 routeOSC /test/2;
#X floatatom -47 106 5 0 0 0 - - -;
#X floatatom 73 104 5 0 0 0 - - -;
#X obj 78 55 routeOSC /test/3;
#X floatatom 195 104 5 0 0 0 - - -;
#X obj 200 55 routeOSC /test/4;
#X obj 401 397 hip~ 5;
#X floatatom 460 63 0 0 0 0 - - -;
#X text 507 65 <-- frequency (Hz.);
#X floatatom 490 121 0 0 0 0 - - -;
#X obj 490 150 * 441;
#X obj 461 173 *~ 0;
#X obj 461 196 +~ 1;
#X msg 555 296 bang;
#X text 525 121 <-- chunk size (100ths of a second);
#X obj 401 371 *~;
#X obj 484 291 line~;
#X obj 484 243 * 441;
#X floatatom 484 220 0 0 0 0 - - -;
#X obj 484 267 pack 0 100;
#X obj 462 325 +~;
#X text 603 296 <-- graph table index;
#X obj 400 118 -~ 0.5;
#X obj 460 91 phasor~;
#X obj 400 142 *~ 0.5;
#X obj 400 165 cos~;
#X text 518 221 <-- read point (100ths of a second);
#X obj 405 424 output~;
#X text 394 -37 ENVELOPING THE LOOPING SAMPLER;
#X obj 461 351 tabread4~ table19;
#X obj 555 322 tabwrite~ graph19;
#X obj 816 258 loadbang;
#X text 852 282 v-- re-read the original sample;
#X obj 826 327 soundfiler;
#X floatatom -100 218 5 0 0 0 - - -;
#X obj -116 175 + 10;
#X obj -80 137 / 12;
#X obj -131 139 / 13;
#X msg 826 303 read voice.wav table19;
#X obj -32 -39 udpreceive 12300;
#X obj 823 232 bng 15 250 50 0 empty empty empty 17 7 0 10 -262144
-1 -1;
#N canvas 0 22 450 300 (subpatch) 0;
#X array table19 44103 float 0;
#X coords 0 300 1 299 200 130 0;
#X restore 833 34 graph;
#N canvas 0 22 450 300 (subpatch) 0;
#X array graph19 44100 float 0;
#X coords 0 44100 44100 0 200 130 1;
#X restore 833 75 graph;
#X text 288 442 TURN THE VOLUME UP;
#X text -22 -72 OSC;
#X text 243 -122 Open in PD Extended;
#X obj 68 142 / 13;
#X obj 205 142 / 13;
#X connect 0 0 2 0;
#X connect 0 0 3 0;
#X connect 0 0 6 0;
#X connect 0 0 8 0;
#X connect 1 0 40 0;
#X connect 2 0 1 0;
#X connect 3 0 4 0;
#X connect 4 0 39 0;
#X connect 5 0 49 0;
#X connect 6 0 5 0;
#X connect 7 0 50 0;
#X connect 8 0 7 0;
#X connect 9 0 30 0;
#X connect 10 0 26 0;
#X connect 12 0 13 0;
#X connect 13 0 14 1;
#X connect 14 0 15 0;
#X connect 15 0 23 0;
#X connect 16 0 33 0;
#X connect 18 0 9 0;
#X connect 19 0 23 1;
#X connect 20 0 22 0;
#X connect 21 0 20 0;
#X connect 22 0 19 0;
#X connect 23 0 32 0;
#X connect 23 0 33 0;
#X connect 25 0 27 0;
#X connect 26 0 14 0;
#X connect 26 0 25 0;
#X connect 27 0 28 0;
#X connect 28 0 18 0;
#X connect 32 0 18 1;
#X connect 34 0 41 0;
#X connect 37 0 21 0;
#X connect 38 0 37 0;
#X connect 39 0 38 1;
#X connect 40 0 38 0;
#X connect 41 0 36 0;
#X connect 42 0 0 0;
#X connect 43 0 34 0;
#X connect 49 0 12 0;
#X connect 50 0 10 0;
#X coords 0 794 1 793 85 60 0;
